<svg viewBox="0 0 263 98" xmlns="http://www.w3.org/2000/svg" fill-rule="evenodd" clip-rule="evenodd" stroke-linejoin="round" stroke-miterlimit="2"><path fill="none" d="M0 0h262.323v97.607H0z"/><path d="M1.01-.365c.023.028-.02.064-.043.036A.525.525 0 00.47-.51C.434-.503.424-.559.46-.566a.58.58 0 01.55.201zM.4-.492a.519.519 0 00-.2.124C.174-.342.134-.382.16-.408a.568.568 0 01.222-.137l.009-.002c.028 0 .04.045.009.055zm.308.031c.034.011.018.065-.017.054a.43.43 0 00-.428.108C.237-.273.197-.312.222-.338a.487.487 0 01.486-.123zm.092.04A.483.483 0 011.048 0c0 .036-.057.036-.057 0a.426.426 0 00-.219-.372C.745-.387.761-.425.786-.425c.004 0 .009.001.014.004zm.091.209c.02.03-.027.061-.047.031a.328.328 0 00-.322-.148C.498-.328.455-.305.445-.341.436-.379.49-.382.515-.385a.39.39 0 01.376.173zM.41-.294a.346.346 0 00-.079.059c-.026.026-.066-.014-.04-.04a.394.394 0 01.093-.069.035.035 0 01.013-.003c.026 0 .041.039.013.053zm.156.055a.236.236 0 00-.169.07c-.026.026-.066-.014-.04-.04a.296.296 0 01.209-.087c.036 0 .036.057 0 .057zm.506-.034a.575.575 0 01-.225.774C.816.519.788.47.82.452a.52.52 0 00.202-.698c-.012-.022.008-.042.027-.042.009 0 .018.005.023.015zm-.4-.003A.296.296 0 01.861 0c0 .036-.057.036-.057 0 0-.1-.061-.188-.152-.223C.621-.235.634-.278.661-.278l.011.002zm.257.139a.39.39 0 01-.274.515C.619.387.606.331.642.323a.334.334 0 00.234-.441C.868-.139.887-.155.904-.155c.011 0 .021.005.025.018zM.845.096a.296.296 0 01-.488.113C.332.184.371.144.397.169A.24.24 0 00.791.078.026.026 0 01.817.06c.017 0 .035.015.028.036zm.193-.002a.488.488 0 01-.616.367C.387.45.404.396.439.407A.43.43 0 00.983.083.027.027 0 011.01.061c.016 0 .032.012.028.033zM.331.235a.331.331 0 00.235.097c.036 0 .036.056 0 .056A.387.387 0 01.292.275C.272.255.291.227.313.227c.006 0 .013.002.018.008zM.266.302a.44.44 0 00.105.076c.032.017.006.067-.027.05A.549.549 0 01.226.342c-.02-.02 0-.049.021-.049.007 0 .013.003.019.009zM.2.368a.516.516 0 00.281.143c.035.006.026.062-.01.056A.575.575 0 01.16.408C.14.388.16.359.181.359.188.359.194.362.2.368zm.554.175a.571.571 0 01-.188.032c-.037 0-.037-.057 0-.057A.518.518 0 00.736.49L.745.488c.028 0 .04.045.009.055z" fill="url(#_Linear1)" fill-rule="nonzero" transform="matrix(-83.87175 0 0 83.87161 96.488 48.978)"/><g fill-rule="nonzero"><path d="M675.867 457.546c-.558.574-1.47 1.074-2.734 1.074-1.661 0-3.043-1.132-3.043-3.117s1.323-3.131 3.043-3.131c1.338 0 2.425.808 2.617 1.058l.735-1.97c-.265-.279-1.397-1.147-3.485-1.147-2.955 0-5.321 1.956-5.321 5.234 0 3.264 2.337 5.234 5.321 5.234 2.073 0 3.146-.853 3.661-1.382l-.794-1.853z" fill="url(#_Linear2)" transform="translate(-971.197 -657.51) scale(1.58387)"/><path d="M687.702 455.547c0-3.278-2.367-5.248-5.381-5.248-3.014 0-5.381 1.97-5.381 5.248 0 3.278 2.367 5.234 5.381 5.234 3.014 0 5.381-1.956 5.381-5.234zm-2.411-.059c0 1.941-1.279 3.176-2.97 3.176-1.691 0-2.97-1.235-2.97-3.176 0-1.94 1.279-3.161 2.97-3.161 1.691 0 2.97 1.235 2.97 3.161z" fill="url(#_Linear3)" transform="translate(-971.197 -657.51) scale(1.58387)"/><path d="M699.668 450.46h-3.013l-2.088 6.675h-.029l-2.117-6.675h-2.999l-.765 10.144h2.338l.367-6.909h.044l2.191 6.909h1.882l2.175-6.909h.03l.397 6.909h2.337l-.75-10.144z" fill="url(#_Linear4)" transform="translate(-971.197 -657.51) scale(1.58387)"/><path d="M712.517 450.46h-3.014l-2.087 6.675h-.029l-2.117-6.675h-2.999l-.765 10.144h2.338l.367-6.909h.044l2.191 6.909h1.881l2.176-6.909h.03l.397 6.909h2.337l-.75-10.144z" fill="url(#_Linear5)" transform="translate(-971.197 -657.51) scale(1.58387)"/><path d="M721.441 458.678h-4.337v-2.352h3.969v-1.896h-3.969v-2.073h4.205v-1.897h-6.572v10.144h6.704v-1.926z" fill="url(#_Linear6)" transform="translate(-971.197 -657.51) scale(1.58387)"/><path d="M732.085 450.46h-2.323v4.602c0 1.073.044 2.22.044 2.22l-4.352-6.822h-2.543v10.144h2.323v-4.587c0-1.073-.044-2.293-.044-2.293l4.454 6.88h2.441V450.46z" fill="url(#_Linear7)" transform="translate(-971.197 -657.51) scale(1.58387)"/><path d="M740.685 450.46h-7.615v1.882h2.616v8.262h2.382v-8.262h2.617v-1.882z" fill="url(#_Linear8)" transform="translate(-971.197 -657.51) scale(1.58387)"/><path d="M745.654 450.446h-2.47l-3.822 10.158h2.469l.721-2.043h3.616l.721 2.043h2.587l-3.822-10.158zm-2.558 6.262l1.264-3.645 1.264 3.645h-2.528z" fill="url(#_Linear9)" transform="translate(-971.197 -657.51) scale(1.58387)"/><path d="M755.798 456.414c.749-.235 1.984-.985 1.984-2.91 0-1.015-.441-1.823-1.117-2.323-.662-.485-1.544-.721-2.676-.721h-3.646v10.144h2.382v-3.881h.75l2.131 3.881h2.764l-2.572-4.19zm-.412-2.822c0 .529-.206.808-.515 1.029-.294.22-.676.279-1.22.279h-.941v-2.602h.941c.544 0 .926.044 1.22.265.309.22.515.514.515 1.029z" fill="url(#_Linear10)" transform="translate(-971.197 -657.51) scale(1.58387)"/><path fill="url(#_Linear11)" d="M759.164 450.46h2.382v10.144h-2.382z" transform="translate(-971.197 -657.51) scale(1.58387)"/><path d="M770.102 458.678h-4.337v-2.352h3.969v-1.896h-3.969v-2.073h4.205v-1.897h-6.572v10.144h6.704v-1.926z" fill="url(#_Linear12)" transform="translate(-971.197 -657.51) scale(1.58387)"/><path d="M778.423 457.517c0-.911-.368-1.529-.794-1.955-.456-.456-1.132-.721-1.411-.824-.324-.132-1.074-.396-1.515-.573-.455-.176-1.029-.412-1.029-1.029s.559-.911 1.323-.911c.765 0 1.676.441 2.264 1.029l1.015-1.662c-.691-.691-2.044-1.249-3.22-1.249-1.176 0-2.102.323-2.676.808a2.859 2.859 0 00-1.058 2.22c0 .956.353 1.544.794 1.956.441.426.955.617 1.205.735.339.147 1.103.411 1.544.573.441.162 1.191.426 1.191 1.117 0 .676-.588 1.044-1.353 1.044-.779 0-1.911-.515-2.646-1.279l-1.176 1.735c.823.764 2.132 1.529 3.602 1.529 1.088 0 2.029-.265 2.749-.838a3.074 3.074 0 001.191-2.426z" fill="url(#_Linear13)" transform="translate(-971.197 -657.51) scale(1.58387)"/></g><g fill-rule="nonzero"><path d="M474.542 190.487h-16.41v4.055h5.639v17.804h5.132v-17.804h5.639v-4.055z" fill="url(#_Linear14)" transform="translate(-376.817 -165.414) scale(1.01009)"/><path d="M488.418 203.318c1.616-.507 4.277-2.123 4.277-6.273 0-2.186-.95-3.928-2.408-5.006-1.425-1.045-3.326-1.552-5.765-1.552h-7.857v21.859h5.132v-8.363h1.616l4.593 8.363h5.956l-5.544-9.028zm-.887-6.083c0 1.14-.443 1.742-1.109 2.218-.633.475-1.457.601-2.629.601h-2.028v-5.607h2.028c1.172 0 1.996.095 2.629.57.666.476 1.109 1.109 1.109 2.218z" fill="url(#_Linear15)" transform="translate(-376.817 -165.414) scale(1.01009)"/><path d="M513.826 190.487h-5.164v12.736c0 1.552-.127 2.756-.855 3.643-.697.823-1.711 1.362-3.137 1.362-1.425 0-2.439-.539-3.136-1.362-.729-.887-.855-2.091-.855-3.643v-12.736h-5.164v12.736c0 3.072.538 5.195 2.059 6.874 1.552 1.647 3.897 2.598 7.096 2.598 3.168 0 5.544-.951 7.065-2.598 1.552-1.679 2.091-3.802 2.091-6.874v-12.736z" fill="url(#_Linear16)" transform="translate(-376.817 -165.414) scale(1.01009)"/><path d="M532.105 208.196h-9.345v-5.069h8.553v-4.086h-8.553v-4.467h9.06v-4.087h-14.161v21.859h14.446v-4.15z" fill="url(#_Linear17)" transform="translate(-376.817 -165.414) scale(1.01009)"/><path d="M558.051 205.757c-1.203 1.235-3.168 2.313-5.892 2.313-3.58 0-6.558-2.44-6.558-6.717 0-4.276 2.851-6.748 6.558-6.748 2.883 0 5.227 1.743 5.639 2.281l1.584-4.245c-.57-.602-3.01-2.471-7.508-2.471-6.368 0-11.468 4.214-11.468 11.278 0 7.033 5.037 11.279 11.468 11.279 4.467 0 6.779-1.838 7.888-2.978l-1.711-3.992z" fill="url(#_Linear18)" transform="translate(-376.817 -165.414) scale(1.01009)"/><path d="M573.86 203.318c1.616-.507 4.277-2.123 4.277-6.273 0-2.186-.951-3.928-2.408-5.006-1.426-1.045-3.326-1.552-5.766-1.552h-7.856v21.859h5.132v-8.363h1.615l4.594 8.363h5.956l-5.544-9.028zm-.887-6.083c0 1.14-.444 1.742-1.109 2.218-.634.475-1.457.601-2.629.601h-2.028v-5.607h2.028c1.172 0 1.995.095 2.629.57.665.476 1.109 1.109 1.109 2.218z" fill="url(#_Linear19)" transform="translate(-376.817 -165.414) scale(1.01009)"/><path fill="url(#_Linear20)" d="M581.115 190.487h5.132v21.859h-5.132z" transform="translate(-376.817 -165.414) scale(1.01009)"/><path d="M613.143 190.487h-6.494l-4.499 14.383h-.063l-4.562-14.383h-6.463l-1.647 21.859h5.037l.792-14.889h.095l4.72 14.889h4.056l4.688-14.889h.064l.855 14.889h5.037l-1.616-21.859z" fill="url(#_Linear21)" transform="translate(-376.817 -165.414) scale(1.01009)"/><path d="M632.373 208.196h-9.345v-5.069h8.553v-4.086h-8.553v-4.467h9.06v-4.087h-14.161v21.859h14.446v-4.15z" fill="url(#_Linear22)" transform="translate(-376.817 -165.414) scale(1.01009)"/></g><defs><linearGradient id="_Linear1" x1="0" y1="0" x2="1" y2="0" gradientUnits="userSpaceOnUse" gradientTransform="matrix(1 0 0 -1 0 0)"><stop offset="0" stop-color="#8b99b3"/><stop offset="1" stop-color="#4f5d78"/></linearGradient><linearGradient id="_Linear2" x1="0" y1="0" x2="1" y2="0" gradientUnits="userSpaceOnUse" gradientTransform="matrix(358.719 0 0 47.2995 667.267 446.414)"><stop offset="0" stop-color="#808fa9"/><stop offset=".2" stop-color="#6c7b95"/><stop offset=".42" stop-color="#586781"/><stop offset="1" stop-color="#4f5d78"/></linearGradient><linearGradient id="_Linear3" x1="0" y1="0" x2="1" y2="0" gradientUnits="userSpaceOnUse" gradientTransform="matrix(358.719 0 0 47.2995 667.267 446.414)"><stop offset="0" stop-color="#808fa9"/><stop offset=".2" stop-color="#6c7b95"/><stop offset=".42" stop-color="#586781"/><stop offset="1" stop-color="#4f5d78"/></linearGradient><linearGradient id="_Linear4" x1="0" y1="0" x2="1" y2="0" gradientUnits="userSpaceOnUse" gradientTransform="matrix(358.719 0 0 47.2995 667.267 446.414)"><stop offset="0" stop-color="#808fa9"/><stop offset=".2" stop-color="#6c7b95"/><stop offset=".42" stop-color="#586781"/><stop offset="1" stop-color="#4f5d78"/></linearGradient><linearGradient id="_Linear5" x1="0" y1="0" x2="1" y2="0" gradientUnits="userSpaceOnUse" gradientTransform="matrix(358.719 0 0 47.2995 667.267 446.414)"><stop offset="0" stop-color="#808fa9"/><stop offset=".2" stop-color="#6c7b95"/><stop offset=".42" stop-color="#586781"/><stop offset="1" stop-color="#4f5d78"/></linearGradient><linearGradient id="_Linear6" x1="0" y1="0" x2="1" y2="0" gradientUnits="userSpaceOnUse" gradientTransform="matrix(358.719 0 0 47.2995 667.267 446.414)"><stop offset="0" stop-color="#808fa9"/><stop offset=".2" stop-color="#6c7b95"/><stop offset=".42" stop-color="#586781"/><stop offset="1" stop-color="#4f5d78"/></linearGradient><linearGradient id="_Linear7" x1="0" y1="0" x2="1" y2="0" gradientUnits="userSpaceOnUse" gradientTransform="matrix(358.719 0 0 47.2995 667.267 446.414)"><stop offset="0" stop-color="#808fa9"/><stop offset=".2" stop-color="#6c7b95"/><stop offset=".42" stop-color="#586781"/><stop offset="1" stop-color="#4f5d78"/></linearGradient><linearGradient id="_Linear8" x1="0" y1="0" x2="1" y2="0" gradientUnits="userSpaceOnUse" gradientTransform="matrix(358.719 0 0 47.2995 667.267 446.414)"><stop offset="0" stop-color="#808fa9"/><stop offset=".2" stop-color="#6c7b95"/><stop offset=".42" stop-color="#586781"/><stop offset="1" stop-color="#4f5d78"/></linearGradient><linearGradient id="_Linear9" x1="0" y1="0" x2="1" y2="0" gradientUnits="userSpaceOnUse" gradientTransform="matrix(358.719 0 0 47.2995 667.267 446.414)"><stop offset="0" stop-color="#808fa9"/><stop offset=".2" stop-color="#6c7b95"/><stop offset=".42" stop-color="#586781"/><stop offset="1" stop-color="#4f5d78"/></linearGradient><linearGradient id="_Linear10" x1="0" y1="0" x2="1" y2="0" gradientUnits="userSpaceOnUse" gradientTransform="matrix(358.719 0 0 47.2995 667.267 446.414)"><stop offset="0" stop-color="#808fa9"/><stop offset=".2" stop-color="#6c7b95"/><stop offset=".42" stop-color="#586781"/><stop offset="1" stop-color="#4f5d78"/></linearGradient><linearGradient id="_Linear11" x1="0" y1="0" x2="1" y2="0" gradientUnits="userSpaceOnUse" gradientTransform="matrix(358.719 0 0 47.2995 667.267 446.414)"><stop offset="0" stop-color="#808fa9"/><stop offset=".2" stop-color="#6c7b95"/><stop offset=".42" stop-color="#586781"/><stop offset="1" stop-color="#4f5d78"/></linearGradient><linearGradient id="_Linear12" x1="0" y1="0" x2="1" y2="0" gradientUnits="userSpaceOnUse" gradientTransform="matrix(358.719 0 0 47.2995 667.267 446.414)"><stop offset="0" stop-color="#808fa9"/><stop offset=".2" stop-color="#6c7b95"/><stop offset=".42" stop-color="#586781"/><stop offset="1" stop-color="#4f5d78"/></linearGradient><linearGradient id="_Linear13" x1="0" y1="0" x2="1" y2="0" gradientUnits="userSpaceOnUse" gradientTransform="matrix(358.719 0 0 47.2995 667.267 446.414)"><stop offset="0" stop-color="#808fa9"/><stop offset=".2" stop-color="#6c7b95"/><stop offset=".42" stop-color="#586781"/><stop offset="1" stop-color="#4f5d78"/></linearGradient><linearGradient id="_Linear14" x1="0" y1="0" x2="1" y2="0" gradientUnits="userSpaceOnUse" gradientTransform="matrix(265.968 0 0 48 458.005 197.946)"><stop offset="0" stop-color="#b94d5d"/><stop offset="1" stop-color="#973c49"/></linearGradient><linearGradient id="_Linear15" x1="0" y1="0" x2="1" y2="0" gradientUnits="userSpaceOnUse" gradientTransform="matrix(265.968 0 0 48 458.005 197.946)"><stop offset="0" stop-color="#b94d5d"/><stop offset="1" stop-color="#973c49"/></linearGradient><linearGradient id="_Linear16" x1="0" y1="0" x2="1" y2="0" gradientUnits="userSpaceOnUse" gradientTransform="matrix(265.968 0 0 48 458.005 197.946)"><stop offset="0" stop-color="#b94d5d"/><stop offset="1" stop-color="#973c49"/></linearGradient><linearGradient id="_Linear17" x1="0" y1="0" x2="1" y2="0" gradientUnits="userSpaceOnUse" gradientTransform="matrix(265.968 0 0 48 458.005 197.946)"><stop offset="0" stop-color="#b94d5d"/><stop offset="1" stop-color="#973c49"/></linearGradient><linearGradient id="_Linear18" x1="0" y1="0" x2="1" y2="0" gradientUnits="userSpaceOnUse" gradientTransform="matrix(265.968 0 0 48 458.005 197.946)"><stop offset="0" stop-color="#b94d5d"/><stop offset="1" stop-color="#973c49"/></linearGradient><linearGradient id="_Linear19" x1="0" y1="0" x2="1" y2="0" gradientUnits="userSpaceOnUse" gradientTransform="matrix(265.968 0 0 48 458.005 197.946)"><stop offset="0" stop-color="#b94d5d"/><stop offset="1" stop-color="#973c49"/></linearGradient><linearGradient id="_Linear20" x1="0" y1="0" x2="1" y2="0" gradientUnits="userSpaceOnUse" gradientTransform="matrix(265.968 0 0 48 458.005 197.946)"><stop offset="0" stop-color="#b94d5d"/><stop offset="1" stop-color="#973c49"/></linearGradient><linearGradient id="_Linear21" x1="0" y1="0" x2="1" y2="0" gradientUnits="userSpaceOnUse" gradientTransform="matrix(265.968 0 0 48 458.005 197.946)"><stop offset="0" stop-color="#b94d5d"/><stop offset="1" stop-color="#973c49"/></linearGradient><linearGradient id="_Linear22" x1="0" y1="0" x2="1" y2="0" gradientUnits="userSpaceOnUse" gradientTransform="matrix(265.968 0 0 48 458.005 197.946)"><stop offset="0" stop-color="#b94d5d"/><stop offset="1" stop-color="#973c49"/></linearGradient></defs></svg>